<?xml version="1.0" standalone="no"?><!DOCTYPE svg PUBLIC "-//W3C//DTD SVG 1.1//EN" "http://www.w3.org/Graphics/SVG/1.1/DTD/svg11.dtd"><svg t="1732870628223" class="icon" viewBox="0 0 1024 1024" version="1.1" xmlns="http://www.w3.org/2000/svg" p-id="4245" xmlns:xlink="http://www.w3.org/1999/xlink" width="200" height="200"><path d="M512 20.898C240.55 20.898 20.898 240.552 20.898 512c0 271.45 219.652 491.102 491.102 491.102S1003.102 783.45 1003.102 512c0-271.448-219.652-491.102-491.102-491.102z" fill="#0084FF" p-id="4246"></path><path d="M512 336.458c-97.03 0-175.542 78.514-175.542 175.542s78.514 175.542 175.542 175.542 175.542-78.514 175.542-175.542-78.512-175.542-175.542-175.542z" fill="#FFFFFF" p-id="4247"></path><path d="M874.122 149.88C777.47 53.23 648.868 0 512 0S246.53 53.23 149.878 149.88 0 375.132 0 512s53.228 265.47 149.878 362.122S375.132 1024 512 1024s265.47-53.228 362.122-149.878S1024 648.868 1024 512s-53.228-265.468-149.878-362.12zM512 982.204C252.73 982.204 41.796 771.27 41.796 512S252.73 41.796 512 41.796 982.204 252.73 982.204 512 771.27 982.204 512 982.204z" p-id="4248"></path><path d="M708.44 512c0-108.316-88.122-196.44-196.44-196.44s-196.44 88.124-196.44 196.44 88.124 196.44 196.44 196.44 196.44-88.122 196.44-196.44z m-351.084 0c0-85.272 69.372-154.644 154.644-154.644s154.644 69.372 154.644 154.644-69.372 154.644-154.644 154.644-154.644-69.372-154.644-154.644z" p-id="4249"></path><path d="M570.514 512c0-32.264-26.248-58.514-58.514-58.514S453.486 479.736 453.486 512s26.25 58.514 58.514 58.514 58.514-26.248 58.514-58.514z m-75.232 0c0-9.218 7.5-16.718 16.718-16.718s16.718 7.5 16.718 16.718-7.5 16.718-16.718 16.718-16.718-7.5-16.718-16.718zM512 783.674c-11.542 0-20.898 9.356-20.898 20.898s9.356 20.898 20.898 20.898c83.794 0 162.53-32.588 221.706-91.766 59.174-59.174 91.762-137.91 91.762-221.704 0-11.542-9.356-20.898-20.898-20.898s-20.898 9.356-20.898 20.898C783.674 661.8 661.8 783.674 512 783.674zM898.612 491.102c-11.542 0-20.898 9.356-20.898 20.898 0 2.962-0.036 5.916-0.104 8.86-0.272 11.538 8.86 21.114 20.398 21.384l0.504 0.006c11.312 0 20.614-9.034 20.884-20.404 0.078-3.274 0.118-6.558 0.118-9.85-0.004-11.538-9.36-20.894-20.902-20.894z" p-id="4250"></path><path d="M895.1 568.478c-11.312-2.29-22.336 5.04-24.616 16.356-34.214 169.708-184.978 292.88-358.484 292.88-11.542 0-20.898 9.356-20.898 20.898s9.356 20.898 20.898 20.898c94.706 0 186.934-33.146 259.694-93.336 71.8-59.394 121.434-142.168 139.762-233.08 2.28-11.312-5.042-22.334-16.356-24.616zM512 240.326c11.542 0 20.898-9.356 20.898-20.898S523.542 198.53 512 198.53c-83.794 0-162.53 32.588-221.706 91.766C231.118 349.47 198.53 428.206 198.53 512c0 11.542 9.356 20.898 20.898 20.898s20.898-9.356 20.898-20.898c0-149.8 121.874-271.674 271.674-271.674zM125.992 481.752c-11.518-0.28-21.114 8.86-21.384 20.398a413.586 413.586 0 0 0-0.118 9.85c0 11.542 9.356 20.898 20.898 20.898S146.286 523.542 146.286 512c0-2.962 0.036-5.916 0.104-8.86 0.272-11.54-8.86-21.114-20.398-21.388z" p-id="4251"></path><path d="M512 146.286c11.542 0 20.898-9.356 20.898-20.898S523.542 104.49 512 104.49c-94.706 0-186.934 33.146-259.694 93.336-71.8 59.394-121.434 142.168-139.762 233.08-2.28 11.314 5.042 22.336 16.356 24.616 1.394 0.282 2.784 0.416 4.152 0.416 9.744 0 18.464-6.852 20.464-16.772C187.728 269.458 338.494 146.286 512 146.286z" p-id="4252"></path></svg>